<?xml version="1.0" encoding="UTF-8"?> <svg xmlns="http://www.w3.org/2000/svg" id="Layer_1" data-name="Layer 1" viewBox="0 0 200 200"><defs><style>.cls-1{fill:#00a7e1;}</style></defs><path class="cls-1" d="M190.45,67.83A94.8,94.8,0,1,0,9.51,124.47l6.13-1.92a88.36,88.36,0,1,1,10.19,21.69l-5.38,3.5a95.12,95.12,0,0,0,79.72,43.18A94.76,94.76,0,0,0,190.45,67.83Z"></path><path class="cls-1" d="M81.37,46.3l1.84-6.15L51.1,30.51a3.19,3.19,0,0,0-3.19.81l-6.43,6.42a3.22,3.22,0,0,0,1,5.21L71.35,55.8,74,49.92,49.33,39l1.76-1.76Z"></path><path class="cls-1" d="M111.2,27.17A3.21,3.21,0,0,0,108,24h0a26.25,26.25,0,0,0-18.7,7.75L62,58.94,51,56.17a3.22,3.22,0,0,0-3.05.84l-6.42,6.43a3.21,3.21,0,0,0,.61,5l15.37,9.22L66.7,93.05a3.2,3.2,0,0,0,2.36,1.54l.39,0a3.25,3.25,0,0,0,2.27-.94l6.43-6.42a3.24,3.24,0,0,0,.84-3L76.22,73.13l27.67-27.4A26.46,26.46,0,0,0,111.2,27.17ZM70.4,69.85a3.2,3.2,0,0,0-.86,3.06L72.31,84l-2.23,2.23L62.57,73.69a3.25,3.25,0,0,0-1.1-1.11L48.93,65.07l2.23-2.23,11.09,2.77a3.24,3.24,0,0,0,3-.84L93.81,36.25a19.84,19.84,0,0,1,10.71-5.57A19.68,19.68,0,0,1,99.3,41.23Z"></path><path class="cls-1" d="M104.64,84.48,95,52l-6.16,1.82L97.9,84.34l-2,1.72L85.24,61.22l-5.9,2.55L91.8,92.67a3.23,3.23,0,0,0,2.25,1.86,3.42,3.42,0,0,0,.7.08,3.22,3.22,0,0,0,2.13-.8l6.81-6A3.23,3.23,0,0,0,104.64,84.48Z"></path><path class="cls-1" d="M66.34,178.42c-22.87,10.83-40.81,12.24-49.22,3.84C2.56,167.7,18.38,125.39,53.91,83.85L49,79.68c-39,45.56-53.95,89.61-36.44,107.12,4.89,4.89,11.8,7.32,20.37,7.32,10,0,22.23-3.31,36.14-9.9Z"></path><path class="cls-1" d="M175.05,112.36a3.22,3.22,0,0,0-2.83-1.69H161.36l-8.75-17.5a3.22,3.22,0,0,0-2.88-1.77H117.62a3.21,3.21,0,0,0-3.21,3.21V120.3a3.2,3.2,0,0,0,3.21,3.21h9.63v35.33a3.22,3.22,0,0,0,3.22,3.21h16.05a3.23,3.23,0,0,0,2.28-1l12.84-12.84a3.22,3.22,0,0,0,.94-2.27V134.12l12.31-18.46A3.23,3.23,0,0,0,175.05,112.36Zm-18.35,19a3.25,3.25,0,0,0-.54,1.79v11.51l-11,11H133.67V120.3a3.2,3.2,0,0,0-3.21-3.21h-9.63V97.82h26.92l8.74,17.49a3.23,3.23,0,0,0,2.88,1.78h6.84Z"></path><path class="cls-1" d="M177.29,85,165.37,64.11a3.22,3.22,0,0,0-2.79-1.62H143.31a3.23,3.23,0,0,0-2.67,1.43l-5.47,8.21h-7.92V56.07h16.06a3.2,3.2,0,0,0,2.27-.94l11.91-11.9h14.72V36.8H156.16a3.2,3.2,0,0,0-2.27.94L142,49.65H124a3.21,3.21,0,0,0-3.21,3.21V75.34A3.21,3.21,0,0,0,124,78.55h12.85a3.23,3.23,0,0,0,2.67-1.43l5.47-8.2h15.69l11.92,20.86a3.22,3.22,0,0,0,2.79,1.62h12.84V85Z"></path><path class="cls-1" d="M98.35,117.09H80.41l-8.69-8.69a3.19,3.19,0,0,0-2.27-1H53.39a3.22,3.22,0,0,0-3.21,3.22v22.48a3.21,3.21,0,0,0,3.21,3.21H66.24v32.11A3.22,3.22,0,0,0,71.38,171l12.84-9.63a3.23,3.23,0,0,0,1.29-2.57v-8.1l14.85-11.88a3.19,3.19,0,0,0,1.2-2.5V120.3A3.21,3.21,0,0,0,98.35,117.09Zm-3.21,17.73L80.29,146.69a3.24,3.24,0,0,0-1.21,2.51v8l-6.42,4.82v-28.9a3.22,3.22,0,0,0-3.21-3.22H56.6V113.88H68.12l8.69,8.69a3.22,3.22,0,0,0,2.27.94H95.14v11.31Z"></path><path class="cls-1" d="M33.66,70.47,24,54.42a3.21,3.21,0,0,0-2.75-1.56H18.07v6.42h1.39l7.41,12.35L19,79.49a3.18,3.18,0,0,0-.94,2.27V91.4H8.43v6.42H21.28a3.21,3.21,0,0,0,3.21-3.21V83.09l8.69-8.69A3.22,3.22,0,0,0,33.66,70.47Z"></path><path class="cls-1" d="M104.78,4.69V8.61l-10.42,2.6a3.43,3.43,0,0,0-1,.44L85.28,17l-17.6-8.8L64.8,14l19.27,9.63a3.28,3.28,0,0,0,1.44.34,3.23,3.23,0,0,0,1.77-.54l9.18-6.12,12.31-3.07a3.22,3.22,0,0,0,2.43-3.12V4.69Z"></path></svg> 